<svg xmlns="http://www.w3.org/2000/svg" viewBox="0 0 85 85"><path fill="#b9b7b7" d="M65.875 48.875c5.313-3.896 8.5-10.271 8.5-17 0-11.688-9.563-21.25-21.25-21.25a21.087 21.087 0 0 0-12.117 3.824c3.036.478 4.323 3.403 3.857 5.958 2.33-1.688 5.179-2.699 8.26-2.699 7.791 0 14.166 6.375 14.166 14.167 0 7.791-6.375 14.166-14.166 14.166-2.828 0-5.459-.854-7.674-2.301-.066 1.603-.794 3.168-2.188 4.045a4.564 4.564 0 0 1 1.425 1.73c2.579.136 4.055 1.92 4.426 3.948a24.169 24.169 0 0 1 4.011-.339c12.396 0 23.021 9.208 24.791 21.25H85c-1.416-11.333-8.854-20.895-19.125-25.499z"/><path fill="#b9b7b7" d="M67 73.75h18V80H67z"/><path fill="#b9b7b7" d="M-.625 82.5v-8.28l.02-.154C.73 63.381 7.202 53.819 16.596 48.334 12.414 43.996 10 38.08 10 31.875c0-13.096 10.654-23.75 23.75-23.75S57.5 18.779 57.5 31.875c0 6.205-2.414 12.12-6.596 16.458 9.395 5.486 15.866 15.049 17.201 25.732l.02.154v8.28H-.625zm56.073-10.625c-2.717-9.44-11.575-16.25-21.698-16.25-10.124 0-18.982 6.81-21.699 16.25h43.397zM33.75 20.208c-6.433 0-11.667 5.233-11.667 11.667 0 6.433 5.233 11.666 11.667 11.666 6.433 0 11.666-5.233 11.666-11.666 0-6.433-5.233-11.667-11.666-11.667z"/><path fill="#FFF" d="M33.75 10.625c11.688 0 21.25 9.563 21.25 21.25 0 6.729-3.188 13.104-8.5 17 10.271 4.604 17.709 14.166 19.125 25.5V80H1.875v-5.625C3.292 63.041 10.729 53.479 21 48.875c-5.313-3.896-8.5-10.271-8.5-17 0-11.687 9.563-21.25 21.25-21.25m0 35.416c7.791 0 14.166-6.375 14.166-14.166 0-7.792-6.375-14.167-14.166-14.167-7.792 0-14.167 6.375-14.167 14.167 0 7.791 6.375 14.166 14.167 14.166M8.958 74.375h49.583c-1.771-12.042-12.396-21.25-24.791-21.25-12.396 0-23.021 9.208-24.792 21.25M33.75 5.625c-14.474 0-26.25 11.776-26.25 26.25a26.336 26.336 0 0 0 5.331 15.896C4.134 53.808-1.777 63.276-3.086 73.755l-.039.309V85h73.75V74.063l-.038-.309c-1.31-10.478-7.221-19.947-15.918-25.983A26.342 26.342 0 0 0 60 31.875c0-14.474-11.775-26.25-26.25-26.25zm0 35.416c-5.054 0-9.167-4.112-9.167-9.166s4.112-9.167 9.167-9.167 9.166 4.112 9.166 9.167-4.112 9.166-9.166 9.166zM15.684 69.375c3.28-6.69 10.249-11.25 18.066-11.25 7.816 0 14.785 4.56 18.065 11.25H15.684z"/></svg>