<svg xmlns="http://www.w3.org/2000/svg" viewBox="0 0 85 85"><path fill="#b9b7b7" d="M42.5 18c13.254 0 24 10.969 24 24.5S55.754 67 42.5 67s-24-10.969-24-24.5S29.246 18 42.5 18m0-7c-17.093 0-31 14.131-31 31.5S25.407 74 42.5 74c17.094 0 31-14.131 31-31.5S59.594 11 42.5 11z"/><circle fill="none" stroke="#b9b7b7" stroke-width="7" stroke-miterlimit="10" cx="42.5" cy="42.5" r="13.5"/><path fill="#b9b7b7" d="M72.584 38.959h12.999v7H72.584zm-73.165 0h13v7h-13zM39-.625h7v13h-7zm-.041 73.542h7v13h-7zM10.5 14.495L15.496 9.5l8.004 8.004-4.995 4.996zm51 52.702l4.996-4.997 8.003 8.004-4.996 4.996zm4.994-44.315l-4.996-4.995 8.004-8.005 4.996 4.996zM14.493 74.299l-4.996-4.996 8.005-8.004 4.995 4.995z"/></svg>