<svg xmlns="http://www.w3.org/2000/svg" viewBox="0 0 512 512"><path fill="#b9b7b7" d="M384.9 498.4L256 427.1l-128.9 71.3c-6.8 3.8-15.2 3.3-21.6-1.1-6.4-4.5-9.7-12.2-8.4-19.9L122 324.9 16.8 217.1c-5.3-5.5-7.1-13.4-4.7-20.6 2.4-7.2 8.7-12.5 16.3-13.6l144.4-22.1 64.8-138.1C240.9 15.6 248.1 11 256 11c7.9 0 15.1 4.6 18.5 11.7l64.8 138.1 144.4 22.1c7.6 1.2 13.8 6.4 16.3 13.6 2.4 7.2.6 15.2-4.7 20.6L390.1 324.9 415 477.4c1.3 7.7-2 15.4-8.4 19.9-3.6 2.4-11.6 6.3-21.7 1.1zM73.6 217.1l84.7 86.8c4.5 4.6 6.5 11.1 5.5 17.4L144 442.5l102-56.4c6.2-3.4 13.6-3.4 19.8 0l102 56.4L348 321.3c-1-6.4 1-12.8 5.5-17.4l84.7-86.8-116.1-17.7c-6.7-1-12.5-5.3-15.4-11.5L256 79.3l-50.9 108.5c-2.9 6.1-8.7 10.5-15.4 11.5L73.6 217.1z"/></svg>